<svg xmlns="http://www.w3.org/2000/svg" xmlns:xlink="http://www.w3.org/1999/xlink" viewBox="0 0 2376.37 912.4"><defs><style>.cls-1{fill:none;}.cls-2{fill:#fff;}.cls-3{fill:#5bc1c8;}.cls-4{fill:#eddf39;}.cls-5{fill:#ea6174;}.cls-6{fill:#231815;stroke:#fff;stroke-linecap:round;stroke-linejoin:round;stroke-width:52.98px;}.cls-7{fill:#200606;}.cls-8{opacity:0.4;}.cls-9{clip-path:url(#clip-path);}.cls-10{clip-path:url(#clip-path-2);}.cls-11{clip-path:url(#clip-path-3);}.cls-12{clip-path:url(#clip-path-4);}.cls-13{clip-path:url(#clip-path-5);}.cls-14{clip-path:url(#clip-path-6);}.cls-15{clip-path:url(#clip-path-7);}.cls-16{clip-path:url(#clip-path-8);}.cls-17{clip-path:url(#clip-path-9);}</style><clipPath id="clip-path"><path class="cls-1" d="M518.22,233a362,362,0,0,1-75.63,8.23c-18.34,0-64,0-64-40.8,0-21,18.35-37.07,35.94-37.07,4.49,0,27,1.87,31.83,1.87,75.62,0,138.89-32.57,172.21-70.38,19.47-21.72,24-26.58,39.69-26.58,22.83,0,38.56,18.71,38.56,37.43,0,30-55,77.12-101.09,99.59V358.45c0,21-18,38.94-37.81,38.94a39,39,0,0,1-39.68-38.94Z"/></clipPath><clipPath id="clip-path-2"><path class="cls-1" d="M929.68,190.36c.37-7.5.37-30.71.37-38.94H819.61c-15.72,0-34.82-12.73-34.82-32.95,0-22.46,17.22-34.81,34.82-34.81h223.88c17.6,0,34.82,13.47,34.82,33.31,0,21.72-17.22,34.45-34.82,34.45h-42.68c-.37,17.59-.37,19.84-1.12,38.94h51.66c17.6,0,34.82,13.48,34.82,32.94,0,22.09-16.85,34.82-34.82,34.82h-55C985.09,351,942.41,391,855.55,391c-26.21,0-85.73-5.24-85.73-43.42,0-22.84,18.72-35.2,34.82-35.2,6.36,0,10.48,1.13,18.34,3.75,7.11,2.24,18,5.24,35.57,5.24,45.3,0,59.52-18,66.64-63.27H792.28c-16.47,0-35.19-13.48-35.19-33.32,0-22.09,17.59-34.44,35.19-34.44Z"/></clipPath><clipPath id="clip-path-3"><path class="cls-1" d="M1395.05,191.86l4.87,169.21c.37,17.6-15.35,36.32-35.94,36.32-19.84,0-36.32-15-36.69-36.32l-4.12-169.21h-13.85c-26.58,144.88-126.54,189.43-147.88,189.43-17.23,0-34.07-14.23-34.07-36.69,0-19.47,13.85-28.08,27.33-35.19,27-13.85,68.88-38.56,83.11-117.55h-69.26c-19.47,0-36.32-16.48-36.32-35.58,0-21.34,16.48-37.06,36.32-37.06h149l-.74-18.34c-.38-12.73,9.36-38.94,37.81-38.94,19.47,0,36.31,15,37.44,38.56l.75,18.72H1425c22.09,0,36.32,19.09,36.32,35.57A36.5,36.5,0,0,1,1425,191.86Z"/></clipPath><clipPath id="clip-path-4"><path class="cls-1" d="M1546.32,253.25c-13.48-1.49-31.45-13.85-31.45-36.31,0-19.47,18.72-37.06,37.81-35.2l103,10.48c16.47,1.51,34.07,14.61,34.07,36.7,0,18.34-16.85,37.06-40.44,34.82Zm1.49-104.45c-14.6-1.5-31.44-15-31.44-35.94,0-20.59,19.84-37.44,37.81-35.57l103,10.86c16.84,1.87,34.06,14.22,34.06,36.31,0,19.47-18.72,37.07-38.56,35.19Zm276.3,4.86c2.24,6.74,2.24,24.34,2.24,33.32,0,123.55-91.72,204.42-220.51,204.42-35.19,0-88-4.12-88-42.31,0-18.72,14.23-35.94,34.45-35.94,4.12,0,7.48.75,14.22,2.25,14.23,3,26.58,4.87,42.31,4.87,67,0,146-37.82,146-132.53,0-2.62-.38-27,0-28.46,2.25-18.72,18.34-30.7,35.19-30.7C1794.91,128.58,1816.62,130.08,1824.11,153.66Z"/></clipPath><clipPath id="clip-path-5"><path class="cls-1" d="M600.45,662.37l-52.8,40.2q-8.68-11.43-29.56-30.35a330.23,330.23,0,0,1-58.32,89.85q57.93,37.83,145.8,51.23-9.45,9.45-20.69,26.2a253.89,253.89,0,0,0-17.53,29.76q-96.94-18.91-155.27-65.81-61.45,43.34-153.28,66.2-5.13-10.64-16.56-27.78a260.44,260.44,0,0,0-20.48-27.39q91-16.54,147-53.59Q341.16,727,317.91,675.77a498,498,0,0,1-42.56,31.13q-25.23-28-49.65-45.71a325.7,325.7,0,0,0,55-33.69q27-20.29,43.95-41.58H233.18V528.78h149V484.65h60.68v44.13H593.35v57.14H506.66Q572.07,631.64,600.45,662.37ZM331.31,585.92l55.56,21.68Q364.79,636,325.39,669.86l48.08-13.79q16.15,39.4,40.59,66.59,25.6-28.75,41-69l62.66,18.13q-29.55-27.58-70.94-57.93l37.84-28Z"/></clipPath><clipPath id="clip-path-6"><path class="cls-1" d="M748.62,655.28l7.09,52.41q-16.55,5.13-35.47,9.85V809q0,20.09-3.93,31.32a35.3,35.3,0,0,1-13.8,17.93q-16.15,11-58.71,11-2-24.84-14.58-54.39,20.88,1.2,31.13.4c2.36,0,4-.4,4.93-1.18s1.37-2.5,1.37-5.12V732.12L634,741.19l-12.22-56.36q5.12-.78,44.92-9.46V613.11H628.83V559.52h37.82V486.23h53.59v73.29h32.33v5.91a169.64,169.64,0,0,0,59.1-81.17l53.59,8.67q-4.72,11-9.06,20.09H896l7.88-2,37,23.25a415.37,415.37,0,0,1-26,46.11h75.67V714.78H941.32V685.23H919.25q-24,0-31.72-8.87t-7.69-34.48V625.72H870q-2.76,25.62-12.42,42.36t-31.72,27.39q-3.54-8.65-12.61-18.91v38.62H765.17V594.59q-.79-.78-12.6-11.43v30H720.24v49.26Zm254.17,119H920.43q25.22,37,89.06,44.92-8.67,7.89-17.93,22.07a166.89,166.89,0,0,0-14.38,26.4q-71.73-14.19-100.48-65.41-29.57,47.67-119,67.77-3.54-10.24-11.81-23.64a133.3,133.3,0,0,0-16.16-21.67q42.56-8.28,66.4-20.3t35.27-30.14H750.2V726.6H846q.39-4.32,2.36-31.13h52.8q-2,28.38-2.36,31.13h104ZM869.6,557.55H831a242.13,242.13,0,0,1-18.92,22.86h45.32A207.74,207.74,0,0,0,869.6,557.55Zm-56.35,68.17V658q13.39-9.85,16.55-32.32ZM941.32,647V625.72h-20.1v16.16q0,5.52,1,6.89c.66.93,2,1.38,4.15,1.38h9.06C938.29,650.15,940.27,649.11,941.32,647Z"/></clipPath><clipPath id="clip-path-7"><path class="cls-1" d="M1373.41,645.08l-28.51,216-67.46-8.9,26-197.18-77.91-10.28L1091.08,868.08l-60.19-30,122.38-202.84-114-15.05,8-60.24,140.15,18.5,42.49-71.21,60.19,30L1259.61,588l71.48,9.43-5.46,41.36Zm-1.33-76.58-51-6.73,6.73-51,51,6.73Zm46,60-51-6.73,6.68-50.59,51,6.73Z"/></clipPath><clipPath id="clip-path-8"><path class="cls-1" d="M1683.25,612.42l-13,50.23h119.9v60.76h-136.1l-42.93,161.21-66-13.36L1584,723.41H1437V662.65h163.24l16.2-61.57-132.86,28.36-16.2-58.74,291.24-62.38,16.2,58.74-152.3,32.81Z"/></clipPath><clipPath id="clip-path-9"><path class="cls-1" d="M1995.17,866.33l-51.35,12.58-49.24-157.54-59,9.43-9.43-46.45,54.14-8.74-14-44L1917.63,619l15,48.55,166.61-26.2L2055.6,795.07l-51.69-10.82,25.15-83.83-81.74,12.92Z"/></clipPath></defs><title>アセット 1</title><g id="レイヤー_2" data-name="レイヤー 2"><g id="レイヤー_1-2" data-name="レイヤー 1"><path class="cls-2" d="M18.35,352.79A156.85,156.85,0,0,0,294.48,204Z"/><path class="cls-3" d="M294.48,204A156.85,156.85,0,0,0,18.35,352.79Z"/><path class="cls-2" d="M1903.65,137A116.4,116.4,0,0,0,2132.5,94.39Z"/><path class="cls-4" d="M2132.5,94.39A116.4,116.4,0,0,0,1903.65,137Z"/><path class="cls-2" d="M1982.7,271c-47.54,103.23-2.87,225.61,100.21,273.84s225.67,4.11,274.46-98.53Z"/><path class="cls-5" d="M2357.37,446.35c47.54-103.23,2.86-225.61-100.22-273.84S2031.49,168.4,1982.7,271Z"/><path class="cls-6" d="M518.83,233.86a362.08,362.08,0,0,1-75.63,8.23c-18.34,0-64,0-64-40.8,0-21,18.35-37.07,35.94-37.07,4.49,0,27,1.87,31.82,1.87,75.63,0,138.9-32.57,172.22-70.38,19.47-21.71,24-26.58,39.69-26.58,22.83,0,38.56,18.72,38.56,37.44,0,30-55,77.12-101.09,99.58V359.28c0,21-18,38.93-37.81,38.93a39,39,0,0,1-39.68-38.93Z"/><path class="cls-6" d="M930.29,191.18c.37-7.49.37-30.7.37-38.94H820.22c-15.73,0-34.82-12.73-34.82-32.94,0-22.46,17.22-34.82,34.82-34.82H1044.1c17.6,0,34.82,13.48,34.82,33.32,0,21.71-17.22,34.44-34.82,34.44h-42.68c-.37,17.6-.37,19.84-1.12,38.94H1052c17.6,0,34.82,13.48,34.82,32.94,0,22.09-16.85,34.82-34.82,34.82h-55C985.7,351.79,943,391.85,856.16,391.85c-26.21,0-85.73-5.24-85.73-43.43,0-22.84,18.72-35.19,34.81-35.19,6.37,0,10.49,1.12,18.35,3.74,7.11,2.25,18,5.24,35.57,5.24,45.29,0,59.52-18,66.63-63.27H792.89c-16.47,0-35.19-13.48-35.19-33.32,0-22.09,17.59-34.44,35.19-34.44Z"/><path class="cls-6" d="M1395.66,192.68l4.87,169.22c.37,17.59-15.35,36.31-35.94,36.31-19.84,0-36.32-15-36.69-36.31l-4.12-169.22h-13.85c-26.59,144.88-126.55,189.43-147.88,189.43-17.23,0-34.07-14.22-34.07-36.69,0-19.46,13.85-28.07,27.33-35.19,27-13.85,68.88-38.56,83.11-117.55h-69.26c-19.47,0-36.32-16.48-36.32-35.57,0-21.34,16.48-37.06,36.32-37.06h149l-.75-18.35c-.37-12.73,9.37-38.93,37.82-38.93,19.47,0,36.31,15,37.44,38.56l.74,18.72h32.2c22.09,0,36.32,19.09,36.32,35.56a36.5,36.5,0,0,1-36.32,37.07Z"/><path class="cls-6" d="M1546.93,254.07c-13.48-1.49-31.45-13.85-31.45-36.31,0-19.47,18.72-37.06,37.81-35.19l103,10.48c16.48,1.5,34.08,14.6,34.08,36.69,0,18.34-16.85,37.07-40.44,34.82Zm1.49-104.45c-14.6-1.5-31.44-15-31.44-35.94,0-20.59,19.84-37.44,37.81-35.56l103,10.85c16.85,1.88,34.07,14.23,34.07,36.32,0,19.47-18.72,37.06-38.56,35.19Zm276.3,4.87c2.24,6.74,2.24,24.33,2.24,33.32,0,123.55-91.72,204.41-220.51,204.41-35.19,0-88-4.12-88-42.3,0-18.72,14.23-35.94,34.45-35.94,4.11,0,7.48.75,14.22,2.24,14.23,3,26.58,4.87,42.31,4.87,67,0,146-37.81,146-132.53,0-2.62-.38-27,0-28.46,2.24-18.71,18.34-30.69,35.19-30.69C1795.52,129.41,1817.23,130.9,1824.72,154.49Z"/><path class="cls-7" d="M518.83,232.57a362.08,362.08,0,0,1-75.63,8.23c-18.34,0-64,0-64-40.8,0-21,18.35-37.07,35.94-37.07,4.49,0,27,1.87,31.82,1.87,75.63,0,138.9-32.57,172.22-70.38,19.47-21.71,24-26.58,39.69-26.58,22.83,0,38.56,18.72,38.56,37.44,0,29.95-55,77.12-101.09,99.58V358c0,21-18,38.93-37.81,38.93A39,39,0,0,1,518.83,358Z"/><path class="cls-7" d="M930.29,189.89c.37-7.49.37-30.7.37-38.94H820.22c-15.73,0-34.82-12.73-34.82-32.94,0-22.46,17.22-34.82,34.82-34.82H1044.1c17.6,0,34.82,13.48,34.82,33.32,0,21.71-17.22,34.44-34.82,34.44h-42.68c-.37,17.6-.37,19.84-1.12,38.94H1052c17.6,0,34.82,13.48,34.82,32.94,0,22.1-16.85,34.82-34.82,34.82h-55C985.7,350.5,943,390.56,856.16,390.56c-26.21,0-85.73-5.24-85.73-43.43,0-22.84,18.72-35.19,34.81-35.19,6.37,0,10.49,1.12,18.35,3.74,7.11,2.25,18,5.24,35.57,5.24,45.29,0,59.52-18,66.63-63.27H792.89c-16.47,0-35.19-13.48-35.19-33.32,0-22.09,17.59-34.44,35.19-34.44Z"/><path class="cls-7" d="M1395.66,191.39l4.87,169.22c.37,17.59-15.35,36.31-35.94,36.31-19.84,0-36.32-15-36.69-36.31l-4.12-169.22h-13.85c-26.59,144.88-126.55,189.43-147.88,189.43-17.23,0-34.07-14.22-34.07-36.69,0-19.46,13.85-28.07,27.33-35.19,27-13.85,68.88-38.56,83.11-117.55h-69.26c-19.47,0-36.32-16.48-36.32-35.57,0-21.34,16.48-37.06,36.32-37.06h149l-.75-18.35c-.37-12.73,9.37-38.93,37.82-38.93,19.47,0,36.31,15,37.44,38.56l.74,18.72h32.2c22.09,0,36.32,19.09,36.32,35.56a36.5,36.5,0,0,1-36.32,37.07Z"/><path class="cls-7" d="M1546.93,252.79c-13.48-1.5-31.45-13.86-31.45-36.32,0-19.47,18.72-37.06,37.81-35.19l103,10.48c16.48,1.5,34.08,14.6,34.08,36.69,0,18.34-16.85,37.07-40.44,34.82Zm1.49-104.46c-14.6-1.5-31.44-15-31.44-35.94,0-20.59,19.84-37.44,37.81-35.56l103,10.85c16.85,1.88,34.07,14.23,34.07,36.32,0,19.47-18.72,37.06-38.56,35.19Zm276.3,4.87c2.24,6.74,2.24,24.33,2.24,33.32,0,123.55-91.72,204.41-220.51,204.41-35.19,0-88-4.12-88-42.3,0-18.72,14.23-35.94,34.45-35.94,4.11,0,7.48.75,14.22,2.24,14.23,3,26.58,4.87,42.31,4.87,67,0,146-37.81,146-132.53,0-2.62-.38-27,0-28.46,2.24-18.71,18.34-30.69,35.19-30.69C1795.52,128.12,1817.23,129.61,1824.72,153.2Z"/><g class="cls-8"><g class="cls-9"><rect class="cls-2" x="419.31" y="293.16" width="1473.82" height="12.33"/><rect class="cls-2" x="419.31" y="318.02" width="1473.82" height="12.33"/><rect class="cls-2" x="419.31" y="342.89" width="1473.82" height="12.33"/><rect class="cls-2" x="419.31" y="367.75" width="1473.82" height="12.33"/></g></g><g class="cls-8"><g class="cls-10"><rect class="cls-2" x="419.31" y="293.16" width="1473.82" height="12.33"/><rect class="cls-2" x="419.31" y="318.02" width="1473.82" height="12.33"/><rect class="cls-2" x="419.31" y="342.89" width="1473.82" height="12.33"/><rect class="cls-2" x="419.31" y="367.75" width="1473.82" height="12.33"/></g></g><g class="cls-8"><g class="cls-11"><rect class="cls-2" x="419.31" y="293.16" width="1473.82" height="12.33"/><rect class="cls-2" x="419.31" y="318.02" width="1473.82" height="12.33"/><rect class="cls-2" x="419.31" y="342.89" width="1473.82" height="12.33"/><rect class="cls-2" x="419.31" y="367.75" width="1473.82" height="12.33"/></g></g><g class="cls-8"><g class="cls-12"><rect class="cls-2" x="419.31" y="293.16" width="1473.82" height="12.33"/><rect class="cls-2" x="419.31" y="318.02" width="1473.82" height="12.33"/><rect class="cls-2" x="419.31" y="342.89" width="1473.82" height="12.33"/><rect class="cls-2" x="419.31" y="367.75" width="1473.82" height="12.33"/><rect class="cls-2" x="419.31" y="293.16" width="1473.82" height="12.33"/><rect class="cls-2" x="419.31" y="318.02" width="1473.82" height="12.33"/><rect class="cls-2" x="419.31" y="342.89" width="1473.82" height="12.33"/><rect class="cls-2" x="419.31" y="367.75" width="1473.82" height="12.33"/></g></g><path class="cls-6" d="M600.45,663.66l-52.8,40.2q-8.68-11.43-29.56-30.35a330.23,330.23,0,0,1-58.32,89.85q57.93,37.83,145.8,51.23-9.45,9.45-20.69,26.2a253.89,253.89,0,0,0-17.53,29.76q-96.94-18.91-155.27-65.81-61.45,43.34-153.28,66.2-5.13-10.63-16.56-27.78a259.39,259.39,0,0,0-20.48-27.39q91-16.54,147-53.59-27.58-33.88-50.83-85.12a498,498,0,0,1-42.56,31.13q-25.23-28-49.65-45.71a325.7,325.7,0,0,0,55-33.69q27-20.29,43.95-41.58H233.18V530.07h149V485.94h60.68v44.13H593.35v57.14H506.66Q572.07,632.93,600.45,663.66ZM331.31,587.21l55.56,21.68q-22.08,28.36-61.48,62.26l48.08-13.79q16.15,39.4,40.59,66.59,25.6-28.76,41-69l62.66,18.13q-29.55-27.58-70.94-57.93l37.84-28Z"/><path class="cls-6" d="M748.62,656.57,755.71,709q-16.55,5.13-35.47,9.85v91.42q0,20.1-3.93,31.33a35.3,35.3,0,0,1-13.8,17.93q-16.15,11-58.71,11-2-24.84-14.58-54.39,20.88,1.19,31.13.4c2.36,0,4-.4,4.93-1.18s1.37-2.5,1.37-5.13V733.41L634,742.48l-12.22-56.36q5.12-.78,44.92-9.46V614.4H628.83V560.81h37.82V487.52h53.59v73.29h32.33v5.91a169.64,169.64,0,0,0,59.1-81.17l53.59,8.67q-4.72,11-9.06,20.09H896l7.88-2,37,23.25a415.37,415.37,0,0,1-26,46.11h75.67V716.07H941.32V686.52H919.25q-24,0-31.72-8.87t-7.69-34.48V627H870q-2.76,25.62-12.42,42.36t-31.72,27.39q-3.54-8.65-12.61-18.91v38.62H765.17V595.88q-.79-.78-12.6-11.43V614.4H720.24v49.26Zm254.17,119H920.43q25.22,37,89.06,44.92-8.67,7.89-17.93,22.07A166.89,166.89,0,0,0,977.18,869q-71.73-14.19-100.48-65.42-29.57,47.69-119,67.78-3.54-10.25-11.81-23.64A133.3,133.3,0,0,0,729.71,826q42.56-8.28,66.4-20.3t35.27-30.14H750.2V727.89H846q.39-4.32,2.36-31.13h52.8q-2,28.38-2.36,31.13h104ZM869.6,558.84H831a242.13,242.13,0,0,1-18.92,22.86h45.32A207.74,207.74,0,0,0,869.6,558.84ZM813.25,627v32.32q13.39-9.86,16.55-32.32Zm128.07,21.28V627h-20.1v16.16q0,5.52,1,6.89c.66.93,2,1.38,4.15,1.38h9.06C938.29,651.44,940.27,650.4,941.32,648.29Z"/><path class="cls-6" d="M1373.41,646.37l-28.51,216-67.46-8.9,26-197.18-77.91-10.28L1091.08,869.37l-60.19-30,122.38-202.84-114-15,8-60.24,140.15,18.5,42.49-71.21,60.19,30-30.39,50.74,71.48,9.43-5.46,41.36Zm-1.33-76.58-51-6.73,6.73-51,51,6.73Zm46,60-51-6.73,6.68-50.59,51,6.73Z"/><path class="cls-6" d="M1683.25,613.71l-13,50.23h119.9V724.7h-136.1l-42.93,161.21-66-13.36L1584,724.7H1437V663.94h163.24l16.2-61.57-132.86,28.36L1467.35,572l291.24-62.38,16.2,58.74-152.3,32.8Z"/><path class="cls-6" d="M1995.17,867.62l-51.35,12.58-49.24-157.54-59,9.43-9.43-46.45,54.14-8.74-14-44,51.35-12.57,15,48.55,166.61-26.2L2055.6,796.36l-51.69-10.82,25.15-83.84-81.74,12.93Z"/><path class="cls-7" d="M600.45,662.37l-52.8,40.2q-8.68-11.43-29.56-30.35a330.23,330.23,0,0,1-58.32,89.85q57.93,37.83,145.8,51.23-9.45,9.45-20.69,26.2a253.89,253.89,0,0,0-17.53,29.76q-96.94-18.91-155.27-65.81-61.45,43.34-153.28,66.2-5.13-10.64-16.56-27.78a260.44,260.44,0,0,0-20.48-27.39q91-16.54,147-53.59Q341.16,727,317.91,675.77a498,498,0,0,1-42.56,31.13q-25.23-28-49.65-45.71a325.7,325.7,0,0,0,55-33.69q27-20.29,43.95-41.58H233.18V528.78h149V484.65h60.68v44.13H593.35v57.14H506.66Q572.07,631.64,600.45,662.37ZM331.31,585.92l55.56,21.68Q364.79,636,325.39,669.86l48.08-13.79q16.15,39.4,40.59,66.59,25.6-28.75,41-69l62.66,18.13q-29.55-27.58-70.94-57.93l37.84-28Z"/><path class="cls-7" d="M748.62,655.28l7.09,52.41q-16.55,5.13-35.47,9.85V809q0,20.09-3.93,31.32a35.3,35.3,0,0,1-13.8,17.93q-16.15,11-58.71,11-2-24.84-14.58-54.39,20.88,1.2,31.13.4c2.36,0,4-.4,4.93-1.18s1.37-2.5,1.37-5.12V732.12L634,741.19l-12.22-56.36q5.12-.78,44.92-9.46V613.11H628.83V559.52h37.82V486.23h53.59v73.29h32.33v5.91a169.64,169.64,0,0,0,59.1-81.17l53.59,8.67q-4.72,11-9.06,20.09H896l7.88-2,37,23.25a415.37,415.37,0,0,1-26,46.11h75.67V714.78H941.32V685.23H919.25q-24,0-31.72-8.87t-7.69-34.48V625.72H870q-2.76,25.62-12.42,42.36t-31.72,27.39q-3.54-8.65-12.61-18.91v38.62H765.17V594.59q-.79-.78-12.6-11.43v30H720.24v49.26Zm254.17,119H920.43q25.22,37,89.06,44.92-8.67,7.89-17.93,22.07a166.89,166.89,0,0,0-14.38,26.4q-71.73-14.19-100.48-65.41-29.57,47.67-119,67.77-3.54-10.24-11.81-23.64a133.3,133.3,0,0,0-16.16-21.67q42.56-8.28,66.4-20.3t35.27-30.14H750.2V726.6H846q.39-4.32,2.36-31.13h52.8q-2,28.38-2.36,31.13h104ZM869.6,557.55H831a242.13,242.13,0,0,1-18.92,22.86h45.32A207.74,207.74,0,0,0,869.6,557.55Zm-56.35,68.17V658q13.39-9.85,16.55-32.32ZM941.32,647V625.72h-20.1v16.16q0,5.52,1,6.89c.66.93,2,1.38,4.15,1.38h9.06C938.29,650.15,940.27,649.11,941.32,647Z"/><path class="cls-7" d="M1373.41,645.08l-28.51,216-67.46-8.9,26-197.18-77.91-10.28L1091.08,868.08l-60.19-30,122.38-202.84-114-15.05,8-60.24,140.15,18.5,42.49-71.21,60.19,30L1259.61,588l71.48,9.43-5.46,41.36Zm-1.33-76.58-51-6.73,6.73-51,51,6.73Zm46,60-51-6.73,6.68-50.59,51,6.73Z"/><path class="cls-7" d="M1683.25,612.42l-13,50.23h119.9v60.76h-136.1l-42.93,161.21-66-13.36L1584,723.41H1437V662.65h163.24l16.2-61.57-132.86,28.36-16.2-58.74,291.24-62.38,16.2,58.74-152.3,32.81Z"/><path class="cls-7" d="M1995.17,866.33l-51.35,12.58-49.24-157.54-59,9.43-9.43-46.45,54.14-8.74-14-44L1917.63,619l15,48.55,166.61-26.2L2055.6,795.07l-51.69-10.82,25.15-83.83-81.74,12.92Z"/><g class="cls-8"><g class="cls-13"><rect class="cls-2" x="159.19" y="767.55" width="1957.08" height="12.33"/><rect class="cls-2" x="159.19" y="792.42" width="1957.08" height="12.33"/><rect class="cls-2" x="159.19" y="817.28" width="1957.08" height="12.33"/><rect class="cls-2" x="159.19" y="842.14" width="1957.08" height="12.33"/></g></g><g class="cls-8"><g class="cls-14"><rect class="cls-2" x="159.19" y="767.55" width="1957.08" height="12.33"/><rect class="cls-2" x="159.19" y="792.42" width="1957.08" height="12.33"/><rect class="cls-2" x="159.19" y="817.28" width="1957.08" height="12.33"/><rect class="cls-2" x="159.19" y="842.14" width="1957.08" height="12.33"/></g></g><g class="cls-8"><g class="cls-15"><rect class="cls-2" x="159.19" y="767.55" width="1957.08" height="12.33"/><rect class="cls-2" x="159.19" y="792.42" width="1957.08" height="12.33"/><rect class="cls-2" x="159.19" y="817.28" width="1957.08" height="12.33"/><rect class="cls-2" x="159.19" y="842.14" width="1957.08" height="12.33"/></g></g><g class="cls-8"><g class="cls-16"><rect class="cls-2" x="159.19" y="767.55" width="1957.08" height="12.33"/><rect class="cls-2" x="159.19" y="792.42" width="1957.08" height="12.33"/><rect class="cls-2" x="159.19" y="817.28" width="1957.08" height="12.33"/><rect class="cls-2" x="159.19" y="842.14" width="1957.08" height="12.33"/></g></g><g class="cls-8"><g class="cls-17"><rect class="cls-2" x="159.19" y="767.55" width="1957.08" height="12.33"/><rect class="cls-2" x="159.19" y="792.42" width="1957.08" height="12.33"/><rect class="cls-2" x="159.19" y="817.28" width="1957.08" height="12.33"/><rect class="cls-2" x="159.19" y="842.14" width="1957.08" height="12.33"/></g></g></g></g></svg>